/vscmnt/brussel_pixiu_data/_data_brussel/112/vsc11236/PredSimResults/SUBJ11mtu3D/worker1.mot
version=1
nRows=10
nColumns=50
inDegrees=yes
endheader
                time	         pelvis_tilt	         pelvis_list	     pelvis_rotation	           pelvis_tx	           pelvis_ty	           pelvis_tz	       hip_flexion_r	     hip_adduction_r	      hip_rotation_r	        knee_angle_r	       ankle_angle_r	         mtp_angle_r	       hip_flexion_l	     hip_adduction_l	      hip_rotation_l	        knee_angle_l	       ankle_angle_l	         mtp_angle_l	    lumbar_extension	      lumbar_bending	     lumbar_rotation	 ercspn_r/activation	 intobl_r/activation	 extobl_r/activation	    abd_r/activation	    add_r/activation	hamstrings_r/activation	bifemsh_r/activation	glut_max_r/activation	iliopsoas_r/activation	rect_fem_r/activation	  vasti_r/activation	gastroc_r/activation	 soleus_r/activation	tib_ant_r/activation	 ercspn_l/activation	 intobl_l/activation	 extobl_l/activation	    abd_l/activation	    add_l/activation	hamstrings_l/activation	bifemsh_l/activation	glut_max_l/activation	iliopsoas_l/activation	rect_fem_l/activation	  vasti_l/activation	gastroc_l/activation	 soleus_l/activation	tib_ant_l/activation	
          1.25454606	         -5.43778063	         -3.05749948	          5.18556012	          1.38000067	          0.94460526	         -0.01311786	         31.85333333	          0.62283122	         -2.19837132	         -9.55825166	          4.73221787	          0.22989173	        -11.98719814	         -3.24936541	          3.69136997	         -8.74153695	         12.57000814	         25.62835182	         -7.22632115	          2.59961596	         -3.87242671	          0.08895317	          0.14088112	          0.02142175	          0.01000026	          0.15714778	          0.04354730	          0.01001380	          0.07901306	          0.03213450	          0.02431001	          0.03273434	          0.01000109	          0.01000029	          0.35635958	          0.05738344	          0.01000065	          0.01000080	          0.04566894	          0.01000137	          0.01136310	          0.16239544	          0.01465580	          0.22980340	          0.01209344	          0.01000172	          0.08454496	          0.24763919	          0.01102545	
          1.26709152	         -5.49572766	         -3.05252154	          5.28032112	          1.39703753	          0.94291583	         -0.01206176	         31.37618725	          0.81135291	         -1.97797682	        -10.37805930	          4.38385477	          0.19309440	        -12.36180343	         -3.35266337	          3.44560846	         -9.80706204	         12.00372857	         27.46547596	         -6.89095583	          2.87486755	         -4.25222279	          0.07357131	          0.11651920	          0.01771731	          0.02534481	          0.14044636	          0.05070823	          0.01929659	          0.11318736	          0.02657748	          0.02010626	          0.02707713	          0.01462098	          0.01462211	          0.37693484	          0.06926363	          0.01000064	          0.01000209	          0.03777137	          0.01163058	          0.01208842	          0.13431593	          0.01212296	          0.19006363	          0.01000441	          0.01000177	          0.06992460	          0.23121592	          0.01000017	
          1.27963698	         -5.54108559	         -3.03008537	          5.34650733	          1.41428083	          0.94152094	         -0.01092367	         30.86219686	          0.97090664	         -1.80911906	        -11.17865351	          3.91025418	          0.19567833	        -12.60551573	         -3.43267502	          3.18513592	        -11.13017031	         11.29662813	         29.37584638	         -6.54068893	          3.12885494	         -4.60892575	          0.08113548	          0.09636959	          0.01465350	          0.08699256	          0.15756375	          0.04206891	          0.01597553	          0.12242885	          0.02198146	          0.01662951	          0.04406359	          0.01209287	          0.01209358	          0.41492225	          0.07545092	          0.01000041	          0.01000178	          0.03123954	          0.01000070	          0.01000672	          0.11109135	          0.01002731	          0.15719611	          0.01000823	          0.01000181	          0.05783249	          0.20883148	          0.01000023	
          1.29218245	         -5.57446741	         -2.98499664	          5.38183451	          1.43150987	          0.94060220	         -0.00971816	         30.39306268	          1.10598571	         -1.70143065	        -12.02989085	          3.29270812	          0.16298975	        -12.62467083	         -3.47738868	          2.90774559	        -12.84200550	         10.42618242	         31.35577463	         -6.20076092	          3.35808375	         -4.93585541	          0.07582047	          0.07970439	          0.01211955	          0.11557901	          0.17977713	          0.04225604	          0.01322436	          0.11591074	          0.01818025	          0.01375408	          0.11548412	          0.01000318	          0.01000264	          0.45160110	          0.10011216	          0.01000069	          0.01000153	          0.02583726	          0.02158048	          0.02993758	          0.09188321	          0.01208759	          0.13001228	          0.01000299	          0.01000171	          0.04783147	          0.17271829	          0.01000021	
          1.30472791	         -5.59628147	         -2.92315019	          5.38927034	          1.44863311	          0.94025053	         -0.00846228	         29.93953337	          1.22860388	         -1.62836207	        -12.95085021	          2.86686772	          0.12283936	        -12.34675882	         -3.48981358	          2.60605151	        -15.05301927	          9.39183940	         33.34491259	         -5.87681390	          3.56874751	         -5.23299473	          0.06581721	          0.06592112	          0.01002391	          0.13400644	          0.20007204	          0.04616674	          0.01210236	          0.11293539	          0.01503641	          0.01137614	          0.16456379	          0.01000320	          0.01000139	          0.46848161	          0.10915759	          0.01000075	          0.01000133	          0.02136920	          0.05459716	          0.03275057	          0.07600047	          0.01000231	          0.10752935	          0.01000184	          0.01000070	          0.03955993	          0.14284977	          0.01000022	
          1.31727337	         -5.60773296	         -2.84623840	          5.36777087	          1.46554208	          0.94051415	         -0.00717173	         29.45021614	          1.34177226	         -1.57316120	        -13.84783055	          2.64548868	          0.08897953	        -11.69825235	         -3.47093573	          2.28248808	        -17.86896915	          8.18895990	         35.23350882	         -5.57849164	          3.76297028	         -5.49754446	          0.05443607	          0.05452140	          0.01000058	          0.15143928	          0.20859801	          0.04936863	          0.01007521	          0.11209882	          0.01243628	          0.01000159	          0.20843443	          0.01000534	          0.01000356	          0.46611672	          0.12439141	          0.01000079	          0.01000178	          0.01767380	          0.08019473	          0.05343427	          0.07023708	          0.01000060	          0.08893438	          0.01000093	          0.01000028	          0.03271879	          0.11814645	          0.01000079	
          1.32981883	         -5.61040221	         -2.75577454	          5.31535950	          1.48211264	          0.94143026	         -0.00586374	         28.88821041	          1.44725510	         -1.52111419	        -14.63147468	          2.58723022	          0.06343648	        -10.62253104	         -3.42550897	          1.94248236	        -21.36370117	          6.87513044	         36.69081821	         -5.31771305	          3.94337911	         -5.72583478	          0.04502265	          0.04509306	          0.01000082	          0.16024927	          0.22170174	          0.05392530	          0.01115315	          0.10510758	          0.01028588	          0.01000147	          0.24215298	          0.01001025	          0.01000978	          0.45282951	          0.12370910	          0.01000142	          0.01000271	          0.01461747	          0.12180399	          0.04420287	          0.06022285	          0.01000047	          0.07355503	          0.01000065	          0.01000019	          0.02706072	          0.09771514	          0.03034652	
          1.34236429	         -5.60560379	         -2.65004152	          5.23018641	          1.49825112	          0.94296050	         -0.00456691	         28.21781095	          1.54420469	         -1.45466190	        -15.21702859	          2.63811848	          0.04609512	         -9.08753996	         -3.35691631	          1.58472952	        -25.59500643	          5.65630805	         37.06690400	         -5.10434743	          4.11144728	         -5.91411312	          0.03723705	          0.03729519	          0.01000081	          0.16095085	          0.22826532	          0.05817389	          0.01012108	          0.09889079	          0.01000060	          0.01000117	          0.25875265	          0.01000925	          0.01000291	          0.43227534	          0.12123153	          0.01000209	          0.01004631	          0.01208969	          0.15739399	          0.03655988	          0.05214227	          0.01000029	          0.06083527	          0.01000055	          0.01000014	          0.02238113	          0.08081706	          0.06196091	
          1.35490975	         -5.59374405	         -2.52547390	          5.10876515	          1.51390671	          0.94499948	         -0.00330819	         27.42885668	          1.62875879	         -1.35960827	        -15.57771204	          2.77997505	          0.03904932	         -7.10890739	         -3.26725998	          1.22077115	        -30.49897968	          4.48502304	         36.20937598	         -4.94475737	          4.26660003	         -6.05801432	          0.03079784	          0.03084583	          0.01000094	          0.15606717	          0.22594567	          0.05996972	          0.01014912	          0.08780907	          0.01000072	          0.01000105	          0.26872622	          0.01000256	          0.01000074	          0.40856451	          0.11948209	          0.01000244	          0.02485746	          0.01000014	          0.18701668	          0.03023799	          0.04771782	          0.01000023	          0.05031523	          0.01000057	          0.01000011	          0.01851083	          0.06684122	          0.11249155	
          1.36745521	         -5.57469111	         -2.37638838	          4.95002286	          1.52904266	          0.94739199	         -0.00210070	         26.54395057	          1.69405620	         -1.22005289	        -15.74824283	          3.01177468	          0.05098473	         -4.75738002	         -3.15400222	          0.86848103	        -35.89820927	          3.33811724	         34.02358814	         -4.84513866	          4.40151487	         -6.15796509	          0.02547221	          0.02551177	          0.01000093	          0.15573852	          0.19433345	          0.05849008	          0.01001157	          0.08102829	          0.01000062	          0.01000119	          0.26941289	          0.01000246	          0.01000089	          0.37739106	          0.13668503	          0.03847453	          0.04264415	          0.01000013	          0.16349332	          0.02500919	          0.04068301	          0.01000019	          0.04161462	          0.01000084	          0.01000011	          0.01530990	          0.05528225	          0.17273830	
